<svg width="22" height="22" viewBox="0 0 22 22" fill="none" xmlns="http://www.w3.org/2000/svg">
<path fill-rule="evenodd" clip-rule="evenodd" d="M11.0012 0.333008C8.10424 0.333008 7.74068 0.345675 6.60289 0.397453C5.46733 0.449453 4.69221 0.629233 4.01398 0.893014C3.31242 1.16546 2.7173 1.52991 2.1244 2.12303C1.53106 2.71592 1.16662 3.31104 0.89328 4.01238C0.628833 4.69083 0.448831 5.46617 0.397719 6.6013C0.34683 7.73909 0.333496 8.10287 0.333496 10.9998C0.333496 13.8967 0.346385 14.2592 0.397941 15.3969C0.450164 16.5325 0.629944 17.3076 0.893502 17.9859C1.16617 18.6874 1.53062 19.2825 2.12374 19.8754C2.71641 20.4688 3.31153 20.8341 4.01265 21.1066C4.69132 21.3703 5.46666 21.5501 6.60201 21.6021C7.7398 21.6539 8.10313 21.6666 10.9998 21.6666C13.897 21.6666 14.2594 21.6539 15.3972 21.6021C16.5328 21.5501 17.3088 21.3703 17.9875 21.1066C18.6888 20.8341 19.283 20.4688 19.8757 19.8754C20.469 19.2825 20.8335 18.6874 21.1068 17.9861C21.369 17.3076 21.5491 16.5323 21.6024 15.3972C21.6535 14.2594 21.6668 13.8967 21.6668 10.9998C21.6668 8.10287 21.6535 7.73931 21.6024 6.60152C21.5491 5.46595 21.369 4.69083 21.1068 4.0126C20.8335 3.31104 20.469 2.71592 19.8757 2.12303C19.2824 1.52969 18.689 1.16524 17.9868 0.893014C17.3068 0.629233 16.5312 0.449453 15.3957 0.397453C14.2579 0.345675 13.8956 0.333008 10.9978 0.333008H11.0012ZM10.0442 2.25522C10.3282 2.25478 10.6451 2.25522 11.0011 2.25522C13.8491 2.25522 14.1867 2.26544 15.3114 2.31655C16.3514 2.36411 16.9158 2.53789 17.2918 2.68389C17.7896 2.87723 18.1445 3.10834 18.5176 3.48168C18.891 3.85502 19.1221 4.21057 19.3159 4.70836C19.4619 5.08392 19.6359 5.64837 19.6832 6.68838C19.7343 7.81283 19.7454 8.15062 19.7454 10.9973C19.7454 13.844 19.7343 14.1818 19.6832 15.3062C19.6357 16.3463 19.4619 16.9107 19.3159 17.2863C19.1225 17.7841 18.891 18.1385 18.5176 18.5116C18.1443 18.885 17.7899 19.1161 17.2918 19.3094C16.9163 19.4561 16.3514 19.6294 15.3114 19.677C14.1869 19.7281 13.8491 19.7392 11.0011 19.7392C8.15287 19.7392 7.81531 19.7281 6.69085 19.677C5.65084 19.629 5.08639 19.4552 4.71016 19.3092C4.21238 19.1158 3.85682 18.8847 3.48348 18.5114C3.11015 18.1381 2.87903 17.7834 2.68525 17.2854C2.53925 16.9098 2.36525 16.3454 2.31792 15.3054C2.2668 14.1809 2.25658 13.8431 2.25658 10.9946C2.25658 8.14617 2.2668 7.81017 2.31792 6.68571C2.36547 5.6457 2.53925 5.08125 2.68525 4.70525C2.87859 4.20746 3.11015 3.8519 3.48348 3.47857C3.85682 3.10523 4.21238 2.87412 4.71016 2.68034C5.08617 2.53367 5.65084 2.36033 6.69085 2.31255C7.67486 2.26811 8.0562 2.25478 10.0442 2.25255V2.25522ZM16.695 4.02635C15.9883 4.02635 15.4149 4.59903 15.4149 5.30592C15.4149 6.0126 15.9883 6.58594 16.695 6.58594C17.4016 6.58594 17.975 6.0126 17.975 5.30592C17.975 4.59925 17.4016 4.02635 16.695 4.02635ZM11.0012 5.52192C7.97604 5.52192 5.52335 7.97461 5.52335 10.9998C5.52335 14.0249 7.97604 16.4765 11.0012 16.4765C14.0263 16.4765 16.4781 14.0249 16.4781 10.9998C16.4781 7.97461 14.0263 5.52192 11.0012 5.52192ZM11.0011 7.44416C12.9647 7.44416 14.5567 9.03596 14.5567 10.9998C14.5567 12.9633 12.9647 14.5553 11.0011 14.5553C9.03734 14.5553 7.44555 12.9633 7.44555 10.9998C7.44555 9.03596 9.03734 7.44416 11.0011 7.44416Z" fill="white"/>
</svg>
