<svg width="117" height="21" viewBox="0 0 117 21" fill="none" xmlns="http://www.w3.org/2000/svg">
<path d="M10.5 0L12.8574 7.25532H20.4861L14.3143 11.7394L16.6717 18.9947L10.5 14.5106L4.32825 18.9947L6.68565 11.7394L0.513906 7.25532H8.1426L10.5 0Z" fill="white"/>
<path d="M34.5 0L36.8574 7.25532H44.4861L38.3143 11.7394L40.6717 18.9947L34.5 14.5106L28.3283 18.9947L30.6857 11.7394L24.5139 7.25532H32.1426L34.5 0Z" fill="white"/>
<path d="M58.5 0L60.8574 7.25532H68.4861L62.3143 11.7394L64.6717 18.9947L58.5 14.5106L52.3283 18.9947L54.6857 11.7394L48.5139 7.25532H56.1426L58.5 0Z" fill="white"/>
<path d="M82.5 0L84.8574 7.25532H92.4861L86.3143 11.7394L88.6717 18.9947L82.5 14.5106L76.3283 18.9947L78.6857 11.7394L72.5139 7.25532H80.1426L82.5 0Z" fill="white"/>
<path d="M106.5 0L108.857 7.25532H116.486L110.314 11.7394L112.672 18.9947L106.5 14.5106L100.328 18.9947L102.686 11.7394L96.5139 7.25532H104.143L106.5 0Z" fill="#485057"/>
</svg>
