<svg width="20" height="16" viewBox="0 0 20 16" fill="none" xmlns="http://www.w3.org/2000/svg">
<path fill-rule="evenodd" clip-rule="evenodd" d="M9.401 4.25649L9.44297 4.94854L8.74349 4.8638C6.19739 4.53896 3.97304 3.43734 2.08445 1.58718L1.16114 0.669159L0.923313 1.34708C0.419688 2.85828 0.741448 4.45422 1.79067 5.5276C2.35025 6.12078 2.22434 6.20552 1.25906 5.85244C0.923313 5.73945 0.629531 5.65471 0.601552 5.69708C0.503625 5.79594 0.839375 7.08117 1.10518 7.58961C1.46891 8.29578 2.21036 8.98782 3.02175 9.3974L3.70724 9.72224L2.89584 9.73636C2.11243 9.73636 2.08445 9.75049 2.16839 10.0471C2.44818 10.9651 3.55336 11.9396 4.78444 12.3633L5.65179 12.6599L4.89636 13.1118C3.77719 13.7615 2.46217 14.1287 1.14715 14.157C0.517615 14.1711 0 14.2276 0 14.27C0 14.4112 1.70673 15.2021 2.69999 15.5128C5.67977 16.4308 9.21914 16.0354 11.8772 14.4677C13.7658 13.3519 15.6543 11.1346 16.5357 8.98782C17.0113 7.84383 17.487 5.75357 17.487 4.75081C17.487 4.10114 17.529 4.0164 18.3124 3.23961C18.774 2.78766 19.2077 2.29335 19.2916 2.15211C19.4315 1.88377 19.4175 1.88377 18.7041 2.12387C17.515 2.54757 17.3471 2.49107 17.9347 1.85552C18.3683 1.40357 18.8859 0.584419 18.8859 0.344321C18.8859 0.301951 18.6761 0.372568 18.4383 0.499678C18.1865 0.640912 17.6269 0.852763 17.2072 0.979873L16.4518 1.21997L15.7663 0.753899C15.3885 0.499678 14.8569 0.217211 14.5772 0.132471C13.8637 -0.0652565 12.7725 -0.0370098 12.129 0.188964C10.3803 0.824516 9.2751 2.46283 9.401 4.25649Z" fill="white"/>
</svg>
