<svg width="13" height="13" viewBox="0 0 13 13" fill="none" xmlns="http://www.w3.org/2000/svg">
<g clip-path="url(#clip0)">
<path d="M12.7322 9.62067C12.5823 10.1776 12.1432 10.6166 11.5864 10.7665C10.5691 11.0449 6.49987 11.0449 6.49987 11.0449C6.49987 11.0449 2.43075 11.0449 1.41344 10.7771C0.867344 10.6273 0.417555 10.1775 0.267691 9.62067C0 8.60347 0 6.49387 0 6.49387C0 6.49387 0 4.37366 0.267691 3.36707C0.417654 2.81026 0.856632 2.37118 1.41354 2.22122C2.44146 1.94282 6.49997 1.94282 6.49997 1.94282C6.49997 1.94282 10.5691 1.94282 11.5864 2.21061C12.1433 2.36047 12.5823 2.79955 12.7323 3.35636C12.9999 4.37366 12.9999 6.48316 12.9999 6.48316C12.9999 6.48316 13.0107 8.60347 12.7322 9.62067Z" fill="white"/>
<path d="M5.2041 4.54452L8.5879 6.49345L5.2041 8.44238V4.54452Z" fill="#28405B"/>
</g>
<defs>
<clipPath id="clip0">
<rect width="13" height="13" fill="white" transform="matrix(1 0 0 -1 0 13)"/>
</clipPath>
</defs>
</svg>
